<svg width="183" height="37" viewBox="0 0 183 37" fill="none" xmlns="http://www.w3.org/2000/svg">
<path d="M63.4211 0H68.8148L71.3082 28.0231H71.4099L74.0559 0H80.162L82.8079 28.0231H82.9097L85.403 0H90.237L86.624 36.4612H79.6531L77.1088 11.8758H77.0071L74.4629 36.4612H67.0338L63.4211 0Z" fill="white"/>
<path d="M96.6974 0H104.279L110.08 36.4612H104.483L103.465 29.221V29.3253H97.1045L96.0869 36.4612H90.8967L96.6974 0ZM102.804 24.377L100.31 6.35468H100.208L97.7662 24.377H102.804Z" fill="white"/>
<path d="M112.796 0H118.393V31.2524H127.603V36.4612H112.796V0Z" fill="white"/>
<path d="M130.287 0H135.884V31.2524H145.094V36.4612H130.287V0Z" fill="white"/>
<path d="M147.778 0H163.044V5.20875H153.376V14.8449H161.059V20.0537H153.376V31.2524H163.044V36.4612H147.778V0Z" fill="white"/>
<path d="M170.639 5.20875H164.787V0H182.088V5.20875H176.236V36.4612H170.639V5.20875Z" fill="white"/>
<path d="M5.80073 0.000202837H13.3824L19.1832 36.4614H13.586L12.5683 29.2212V29.3255H6.20783L5.19017 36.4614H0L5.80073 0.000202837ZM11.9068 24.3772L9.41347 6.35488H9.31176L6.86935 24.3772H11.9068Z" fill="#F96D6B"/>
<path d="M43.6756 0.000202837H49.2729V15.366L56.3966 0.000202837H61.9939L55.3279 13.3867L62.0957 36.4614H56.2441L51.5118 20.2102L49.2729 24.8461V36.4616H43.6756V0.000202837Z" fill="#F96D6B"/>
<path d="M40.0711 36.462H34.4738V31.2531H40.0711V36.462Z" fill="#F96D6B"/>
<path d="M22.5165 20.8338H40.0714V26.0426H22.5165V20.8338Z" fill="#F96D6B"/>
<path d="M22.5165 36.46V20.8338H28.1137V36.46H22.5165Z" fill="#F96D6B"/>
<path d="M40.0711 0.000202837V20.8352H34.4738V0.000202837H40.0711Z" fill="#F96D6B"/>
<path d="M40.0714 5.20895H25.5695V0.000202837H40.0711L40.0714 5.20895Z" fill="#F96D6B"/>
<path d="M22.5165 14.845V0H28.1137V14.845H22.5165Z" fill="#F96D6B"/>
</svg>
