<svg width="32" height="32" viewBox="0 0 32 32" fill="none" xmlns="http://www.w3.org/2000/svg">
<path d="M29.3334 11.4773V22.3333C29.3335 23.4401 28.91 24.505 28.1499 25.3096C27.3897 26.1141 26.3505 26.5973 25.2454 26.6599L25.0001 26.6666H7.00008C5.89323 26.6667 4.82831 26.2432 4.02377 25.483C3.21924 24.7229 2.73608 23.6837 2.67341 22.5786L2.66675 22.3333V11.4773L15.5361 18.2186C15.6792 18.2936 15.8385 18.3328 16.0001 18.3328C16.1617 18.3328 16.3209 18.2936 16.4641 18.2186L29.3334 11.4773ZM7.00008 5.33325H25.0001C26.0742 5.33312 27.1101 5.73191 27.9068 6.45228C28.7035 7.17264 29.2043 8.16323 29.3121 9.23192L16.0001 16.2053L2.68808 9.23192C2.79145 8.20567 3.25748 7.24994 4.00241 6.53654C4.74735 5.82313 5.72232 5.39883 6.75208 5.33992L7.00008 5.33325H25.0001H7.00008Z" fill="white" fill-opacity="0.6"/>
</svg>
