<svg width="32" height="32" viewBox="0 0 32 32" fill="none" xmlns="http://www.w3.org/2000/svg">
<path d="M29.3333 11.4773V22.3333C29.3334 23.4401 28.9099 24.505 28.1497 25.3096C27.3896 26.1141 26.3504 26.5973 25.2453 26.6599L25 26.6666H6.99996C5.89311 26.6667 4.82819 26.2432 4.02365 25.483C3.21911 24.7229 2.73596 23.6837 2.67329 22.5786L2.66663 22.3333V11.4773L15.536 18.2186C15.6791 18.2936 15.8383 18.3328 16 18.3328C16.1616 18.3328 16.3208 18.2936 16.464 18.2186L29.3333 11.4773ZM6.99996 5.33325H25C26.0741 5.33312 27.1099 5.73191 27.9067 6.45228C28.7034 7.17264 29.2042 8.16323 29.312 9.23192L16 16.2053L2.68796 9.23192C2.79132 8.20567 3.25736 7.24994 4.00229 6.53654C4.74723 5.82313 5.7222 5.39883 6.75196 5.33992L6.99996 5.33325H25H6.99996Z" fill="#F96D6B"/>
</svg>
