<svg width="32" height="32" viewBox="0 0 32 32" fill="none" xmlns="http://www.w3.org/2000/svg">
<path d="M11.0332 4.01939C12.8335 3.99032 14.6341 4.01098 16.4347 4.0083C18.57 4.0083 20.7052 3.98344 22.8405 4.01977C23.5036 4.03545 24.1688 4.21405 24.7382 4.57393C25.2793 4.91048 25.7256 5.39581 26.069 5.94385C26.4506 6.54199 26.6688 7.25563 26.6666 7.97578C26.6578 9.11928 26.2067 10.2766 25.3675 11.0284C24.8205 11.5298 24.1417 11.8717 23.4249 12.0041C23.1005 12.0664 22.7706 12.0905 22.4411 12.0882C20.4028 12.0874 18.3646 12.0863 16.3263 12.0932C16.0294 12.0932 15.7021 12.0718 15.4465 12.258C15.2371 12.4095 15.1734 12.6925 15.1767 12.9445C15.1792 14.6785 15.1749 16.4121 15.1767 18.1461C15.1705 18.306 15.1943 18.4765 15.1317 18.6272C15.0906 18.7007 15.0013 18.6548 14.9482 18.6238C13.4174 17.7388 11.8852 16.8565 10.3599 15.9604C9.64703 15.5463 8.91477 15.1669 8.22205 14.716C7.65821 14.3427 7.12659 13.9048 6.69859 13.3667C5.84441 12.2748 5.32816 10.8804 5.33329 9.46425C5.36478 7.9796 6.00148 6.51752 7.05959 5.52354C7.53373 5.0627 8.08073 4.67528 8.68814 4.43358C9.17655 4.23662 9.68804 4.09052 10.2112 4.04463C10.4847 4.0236 10.759 4.02742 11.0332 4.01939Z" fill="white" fill-opacity="0.6"/>
<path d="M16.8833 13.3466C16.9577 13.3079 17.031 13.3627 17.0981 13.3941C17.6336 13.7009 18.168 14.01 18.7027 14.3187C19.3717 14.7113 20.0538 15.079 20.7278 15.4613C21.3612 15.834 21.9905 16.2144 22.6294 16.5767C23.5024 17.0735 24.4033 17.5692 25.0895 18.3387C25.4641 18.7447 25.7397 19.2335 26.0018 19.723C26.1356 19.9876 26.2763 20.2542 26.3459 20.5473C26.4057 20.7809 26.4508 21.0188 26.527 21.2478C26.6663 21.665 26.6641 22.1123 26.6663 22.5486C26.6707 22.9091 26.626 23.2683 26.5442 23.6181C26.4046 24.1976 26.2158 24.7706 25.9116 25.2801C25.5784 25.845 25.1459 26.3441 24.6533 26.7624C23.9155 27.3887 23.0028 27.7602 22.0715 27.9245C21.5433 28.0199 21.0056 27.9985 20.4723 27.9965C16.8811 27.9889 13.2895 28.0004 9.69826 27.9965C9.18365 28.005 8.66245 27.9816 8.16617 27.8269C7.43165 27.6104 6.77703 27.1466 6.27415 26.5513C5.88857 26.1063 5.6276 25.5566 5.46889 24.9832C5.10786 23.6698 5.48429 22.1759 6.39877 21.203C6.91081 20.6457 7.5658 20.2037 8.30105 20.0635C8.92012 19.9601 9.54688 19.9003 10.1744 19.9091C12.1287 19.8999 14.083 19.9076 16.0374 19.8995C16.2569 19.8915 16.5006 19.8459 16.652 19.664C16.803 19.4767 16.8232 19.2189 16.8265 18.9845C16.8276 17.2344 16.825 15.4843 16.8276 13.7342C16.8342 13.6047 16.8151 13.4619 16.8833 13.3466Z" fill="white" fill-opacity="0.6"/>
</svg>
