<svg width="32" height="32" viewBox="0 0 32 32" fill="none" xmlns="http://www.w3.org/2000/svg">
<path d="M11.0333 4.01939C12.8335 3.99032 14.6342 4.01098 16.4348 4.0083C18.5701 4.0083 20.7053 3.98344 22.8406 4.01977C23.5037 4.03545 24.1689 4.21405 24.7382 4.57393C25.2794 4.91048 25.7257 5.39581 26.0691 5.94385C26.4506 6.54199 26.6688 7.25563 26.6666 7.97578C26.6579 9.11928 26.2068 10.2766 25.3676 11.0284C24.8206 11.5298 24.1418 11.8717 23.4249 12.0041C23.1005 12.0664 22.7707 12.0905 22.4411 12.0882C20.4029 12.0874 18.3647 12.0863 16.3264 12.0932C16.0295 12.0932 15.7022 12.0718 15.4466 12.258C15.2372 12.4095 15.1735 12.6925 15.1768 12.9445C15.1793 14.6785 15.1749 16.4121 15.1768 18.1461C15.1705 18.306 15.1943 18.4765 15.1317 18.6272C15.0907 18.7007 15.0014 18.6548 14.9483 18.6238C13.4175 17.7388 11.8853 16.8565 10.36 15.9604C9.64711 15.5463 8.91485 15.1669 8.22213 14.716C7.65829 14.3427 7.12667 13.9048 6.69867 13.3667C5.84449 12.2748 5.32824 10.8804 5.33337 9.46425C5.36486 7.9796 6.00156 6.51752 7.05967 5.52354C7.53381 5.0627 8.08081 4.67528 8.68822 4.43358C9.17663 4.23662 9.68812 4.09052 10.2113 4.04463C10.4848 4.0236 10.759 4.02742 11.0333 4.01939Z" fill="white"/>
<path d="M16.8834 13.3467C16.9578 13.308 17.0311 13.3627 17.0982 13.3942C17.6337 13.701 18.1681 14.0101 18.7028 14.3188C19.3717 14.7114 20.0538 15.0791 20.7279 15.4614C21.3612 15.8341 21.9906 16.2144 22.6294 16.5768C23.5025 17.0736 24.4034 17.5692 25.0896 18.3388C25.4642 18.7448 25.7398 19.2335 26.0019 19.7231C26.1356 19.9877 26.2764 20.2543 26.346 20.5473C26.4058 20.781 26.4509 21.0189 26.5271 21.2479C26.6664 21.665 26.6642 22.1124 26.6664 22.5487C26.6708 22.9091 26.6261 23.2684 26.5443 23.6181C26.4047 24.1977 26.2159 24.7707 25.9117 25.2801C25.5785 25.8451 25.146 26.3442 24.6534 26.7625C23.9156 27.3887 23.0029 27.7603 22.0716 27.9246C21.5434 28.02 21.0057 27.9985 20.4724 27.9966C16.8812 27.989 13.2896 28.0005 9.69834 27.9966C9.18373 28.0051 8.66253 27.9817 8.16625 27.8269C7.43173 27.6105 6.77711 27.1467 6.27423 26.5514C5.88865 26.1063 5.62768 25.5567 5.46897 24.9833C5.10794 23.6699 5.48437 22.176 6.39885 21.2031C6.91089 20.6458 7.56588 20.2038 8.30113 20.0636C8.9202 19.9602 9.54696 19.9004 10.1745 19.9092C12.1288 19.9 14.0831 19.9077 16.0374 19.8996C16.257 19.8916 16.5007 19.846 16.6521 19.6641C16.8031 19.4768 16.8233 19.219 16.8266 18.9846C16.8277 17.2345 16.8251 15.4844 16.8277 13.7343C16.8343 13.6048 16.8152 13.462 16.8834 13.3467Z" fill="white"/>
</svg>
