<svg width="32" height="32" viewBox="0 0 32 32" fill="none" xmlns="http://www.w3.org/2000/svg">
<path d="M11.0333 4.01939C12.8336 3.99032 14.6342 4.01098 16.4348 4.0083C18.5701 4.0083 20.7054 3.98344 22.8406 4.01977C23.5037 4.03545 24.169 4.21405 24.7383 4.57393C25.2794 4.91048 25.7257 5.39581 26.0692 5.94385C26.4507 6.54199 26.6689 7.25563 26.6667 7.97578C26.6579 9.11928 26.2068 10.2766 25.3677 11.0284C24.8207 11.5298 24.1419 11.8717 23.425 12.0041C23.1006 12.0664 22.7707 12.0905 22.4412 12.0882C20.4029 12.0874 18.3647 12.0863 16.3265 12.0932C16.0295 12.0932 15.7022 12.0718 15.4466 12.258C15.2372 12.4095 15.1735 12.6925 15.1768 12.9445C15.1794 14.6785 15.175 16.4121 15.1768 18.1461C15.1706 18.306 15.1944 18.4765 15.1318 18.6272C15.0908 18.7007 15.0014 18.6548 14.9483 18.6238C13.4176 17.7388 11.8853 16.8565 10.36 15.9604C9.64715 15.5463 8.91489 15.1669 8.22218 14.716C7.65834 14.3427 7.12672 13.9048 6.69871 13.3667C5.84453 12.2748 5.32829 10.8804 5.33341 9.46425C5.3649 7.9796 6.0016 6.51752 7.05971 5.52354C7.53385 5.0627 8.08085 4.67528 8.68826 4.43358C9.17668 4.23662 9.68816 4.09052 10.2114 4.04463C10.4849 4.0236 10.7591 4.02742 11.0333 4.01939Z" fill="#F96D6B"/>
<path d="M16.8834 13.3466C16.9578 13.3079 17.0311 13.3627 17.0982 13.3941C17.6337 13.7009 18.1681 14.01 18.7029 14.3187C19.3718 14.7113 20.0539 15.079 20.7279 15.4613C21.3613 15.834 21.9906 16.2144 22.6295 16.5767C23.5025 17.0735 24.4035 17.5692 25.0896 18.3387C25.4642 18.7447 25.7398 19.2335 26.0019 19.723C26.1357 19.9876 26.2764 20.2542 26.3461 20.5473C26.4058 20.7809 26.4509 21.0188 26.5271 21.2478C26.6664 21.665 26.6642 22.1123 26.6664 22.5486C26.6708 22.9091 26.6261 23.2683 26.5444 23.6181C26.4047 24.1976 26.216 24.7706 25.9117 25.2801C25.5786 25.845 25.1461 26.3441 24.6534 26.7624C23.9156 27.3887 23.003 27.7602 22.0716 27.9245C21.5435 28.0199 21.0058 27.9985 20.4725 27.9965C16.8812 27.9889 13.2896 28.0004 9.69838 27.9965C9.18377 28.005 8.66257 27.9816 8.16629 27.8269C7.43177 27.6104 6.77715 27.1466 6.27428 26.5513C5.88869 26.1063 5.62772 25.5566 5.46901 24.9832C5.10798 23.6698 5.48441 22.1759 6.39889 21.203C6.91093 20.6457 7.56592 20.2037 8.30117 20.0635C8.92024 19.9601 9.547 19.9003 10.1745 19.9091C12.1288 19.8999 14.0831 19.9076 16.0375 19.8995C16.257 19.8915 16.5008 19.8459 16.6521 19.664C16.8032 19.4767 16.8233 19.2189 16.8266 18.9845C16.8277 17.2344 16.8251 15.4843 16.8277 13.7342C16.8343 13.6047 16.8152 13.4619 16.8834 13.3466Z" fill="#F96D6B"/>
</svg>
