<svg width="32" height="32" viewBox="0 0 32 32" fill="none" xmlns="http://www.w3.org/2000/svg">
<path d="M27.6156 18.0813C27.7437 17.3781 27.8125 16.6594 27.8125 15.9406C27.8125 14.3469 27.5 12.8 26.8844 11.3469C26.2906 9.94063 25.4375 8.67813 24.3531 7.59375C23.2778 6.51569 22.0031 5.65705 20.6 5.06563C19.1438 4.45 17.6 4.1375 16.0063 4.1375C15.2563 4.1375 14.5031 4.20937 13.7719 4.35C12.76 3.81382 11.6326 3.53277 10.4875 3.53125C8.62187 3.53125 6.86562 4.25938 5.54687 5.57813C4.89613 6.22553 4.38018 6.9955 4.02884 7.84353C3.67751 8.69156 3.49776 9.60083 3.5 10.5188C3.5 11.7063 3.80625 12.875 4.37812 13.9063C4.2625 14.575 4.2 15.2594 4.2 15.9406C4.2 17.5344 4.5125 19.0813 5.12812 20.5344C5.72187 21.9406 6.57187 23.2031 7.65625 24.2875C8.74062 25.3719 10.0031 26.2219 11.4094 26.8156C12.8656 27.4313 14.4094 27.7438 16.0031 27.7438C16.6969 27.7438 17.3906 27.6813 18.0719 27.5594C19.1187 28.15 20.3 28.4656 21.5094 28.4656C23.375 28.4656 25.1313 27.7406 26.45 26.4188C27.7719 25.1 28.4969 23.3438 28.4969 21.4781C28.5 20.2906 28.1938 19.1188 27.6156 18.0813ZM16.0531 23.1719C11.8594 23.1719 9.98437 21.1094 9.98437 19.5656C9.98437 18.7719 10.5687 18.2188 11.375 18.2188C13.1687 18.2188 12.7063 20.7969 16.0531 20.7969C17.7688 20.7969 18.7156 19.8656 18.7156 18.9125C18.7156 18.3406 18.4344 17.7031 17.3031 17.425L13.5719 16.4938C10.5687 15.7406 10.0219 14.1156 10.0219 12.5906C10.0219 9.42188 13.0063 8.23125 15.8094 8.23125C18.3906 8.23125 21.4344 9.65938 21.4344 11.5594C21.4344 12.375 20.7281 12.8469 19.9219 12.8469C18.3906 12.8469 18.6719 10.7281 15.5875 10.7281C14.0562 10.7281 13.2094 11.4219 13.2094 12.4125C13.2094 13.4031 14.4187 13.7188 15.4688 13.9594L18.2313 14.5719C21.2563 15.2469 22.0219 17.0125 22.0219 18.675C22.0219 21.2469 20.0438 23.1719 16.0531 23.1719Z" fill="white"/>
</svg>
