<svg width="20" height="27" viewBox="0 0 20 27" fill="none" xmlns="http://www.w3.org/2000/svg">
<path d="M0.194922 19.16H3.61492C3.83092 20.048 4.20292 20.804 4.73092 21.428C5.93092 22.916 7.65892 23.66 9.91492 23.66C11.8589 23.66 13.3589 23.192 14.4149 22.256C15.4949 21.32 16.0349 20.108 16.0349 18.62C16.0349 17.132 15.5069 15.92 14.4509 14.984C13.3949 14.048 11.9429 13.58 10.0949 13.58H4.87492V10.7L13.2989 3.896L13.3349 3.86H1.45492V0.799998H17.8349V3.86L9.91492 10.232L9.59092 10.484L9.55492 10.52H10.0949C12.7349 10.52 14.9189 11.324 16.6469 12.932C18.3989 14.516 19.2749 16.412 19.2749 18.62C19.2749 20.852 18.3869 22.76 16.6109 24.344C14.8589 25.928 12.6269 26.72 9.91492 26.72C6.31492 26.72 3.63892 25.46 1.88692 22.94C1.07092 21.788 0.506922 20.528 0.194922 19.16Z" fill="white"/>
</svg>
