<svg width="19" height="26" viewBox="0 0 19 26" fill="none" xmlns="http://www.w3.org/2000/svg">
<path d="M0.814375 26V22.94L9.09438 16.82C11.3744 15.116 12.9944 13.652 13.9544 12.428C14.9144 11.204 15.3944 9.788 15.3944 8.18C15.3944 6.716 14.8904 5.516 13.8824 4.58C12.8984 3.62 11.6024 3.14 9.99438 3.14C7.93038 3.14 6.39438 3.98 5.38638 5.66C4.90638 6.428 4.58238 7.268 4.41438 8.18H0.994375C1.21038 6.692 1.67838 5.348 2.39838 4.148C4.10238 1.436 6.63438 0.079999 9.99438 0.079999C12.4904 0.079999 14.5544 0.859999 16.1864 2.42C17.8184 3.98 18.6344 5.9 18.6344 8.18C18.6344 10.364 18.0104 12.284 16.7624 13.94C15.5384 15.572 13.7024 17.252 11.2544 18.98L6.03438 22.688L5.67438 22.904V22.976L5.99838 22.94H18.6344V26H0.814375Z" fill="white"/>
</svg>
